<svg width="44" height="44" viewBox="0 0 44 44" fill="none" xmlns="http://www.w3.org/2000/svg">
<g clip-path="url(#clip0_10_162)">
<path d="M44 21.978C44 9.845 34.144 0 22 0C9.856 0 0 9.845 0 21.978C0 28.6605 3.036 34.683 7.788 38.7255C7.832 38.7695 7.876 38.7695 7.876 38.8135C8.272 39.1215 8.668 39.4295 9.108 39.7375C9.328 39.8695 9.504 40.0428 9.724 40.2188C13.3612 42.6807 17.652 43.9976 22.044 44C26.436 43.9976 30.7268 42.6807 34.364 40.2188C34.584 40.0868 34.76 39.9135 34.98 39.7788C35.376 39.4735 35.816 39.1655 36.212 38.8575C36.256 38.8135 36.3 38.8135 36.3 38.7695C40.964 34.6802 44 28.6605 44 21.978ZM22 41.2308C17.864 41.2308 14.08 39.9107 10.956 37.7135C11 37.3615 11.088 37.0123 11.176 36.6603C11.439 35.7066 11.8235 34.7907 12.32 33.935C12.804 33.099 13.376 32.351 14.08 31.691C14.74 31.031 15.532 30.4178 16.324 29.9338C17.16 29.4498 18.04 29.0977 19.008 28.8337C19.9838 28.5724 20.9898 28.4402 22 28.4405C24.9996 28.4178 27.8892 29.5685 30.052 31.647C31.064 32.659 31.856 33.8461 32.428 35.2083C32.736 36.0003 32.956 36.8353 33.088 37.7135C29.8407 39.9964 25.9694 41.2245 22 41.2308ZM15.268 20.8808C14.8811 19.9929 14.6862 19.0332 14.696 18.0647C14.696 17.0995 14.872 16.1315 15.268 15.2515C15.664 14.3715 16.192 13.5822 16.852 12.9222C17.512 12.2622 18.304 11.737 19.184 11.341C20.064 10.945 21.032 10.769 22 10.769C23.012 10.769 23.936 10.945 24.816 11.341C25.696 11.737 26.488 12.265 27.148 12.9222C27.808 13.5822 28.336 14.3743 28.732 15.2515C29.128 16.1315 29.304 17.0995 29.304 18.0647C29.304 19.0767 29.128 20.0007 28.732 20.878C28.352 21.7462 27.815 22.5368 27.148 23.21C26.4745 23.876 25.684 24.4121 24.816 24.7913C22.9975 25.537 20.9585 25.537 19.14 24.7913C18.272 24.4121 17.4815 23.876 16.808 23.21C16.1404 22.5463 15.6163 21.7553 15.268 20.8808ZM35.684 35.4723C35.684 35.3843 35.64 35.3403 35.64 35.2523C35.208 33.8753 34.5701 32.5717 33.748 31.3857C32.9252 30.1911 31.9148 29.1371 30.756 28.2645C29.8707 27.5982 28.9109 27.0371 27.896 26.5925C28.3556 26.2851 28.783 25.9322 29.172 25.5392C29.828 24.8916 30.4041 24.1678 30.888 23.3833C31.8658 21.7837 32.3694 19.9393 32.34 18.0647C32.3544 16.6773 32.0849 15.3017 31.548 14.0223C31.0186 12.7893 30.2568 11.6698 29.304 10.725C28.3503 9.79289 27.2312 9.0468 26.004 8.525C24.7227 7.98835 23.3451 7.71975 21.956 7.73575C20.5667 7.72062 19.1891 7.99015 17.908 8.52775C16.6673 9.04318 15.5445 9.80574 14.608 10.769C13.671 11.7177 12.9243 12.8369 12.408 14.0662C11.8711 15.3457 11.6016 16.7213 11.616 18.1087C11.616 19.0767 11.748 19.9998 12.012 20.878C12.276 21.802 12.628 22.638 13.112 23.4272C13.552 24.2192 14.168 24.9233 14.828 25.5833C15.224 25.9793 15.664 26.3303 16.148 26.6365C15.1286 27.0903 14.1682 27.6666 13.288 28.3525C12.144 29.2325 11.132 30.2857 10.296 31.4298C9.46625 32.6113 8.82776 33.9161 8.404 35.2962C8.36 35.3843 8.36 35.4722 8.36 35.5163C4.884 31.999 2.728 27.2525 2.728 21.978C2.728 11.385 11.396 2.72525 22 2.72525C32.604 2.72525 41.272 11.385 41.272 21.978C41.2662 27.0379 39.2571 31.8896 35.684 35.4723Z" fill="#FF0000"/>
</g>
<defs>
<clipPath id="clip0_10_162">
<rect width="44" height="44" fill="white"/>
</clipPath>
</defs>
</svg>
