<svg width="44" height="44" viewBox="0 0 44 44" fill="none" xmlns="http://www.w3.org/2000/svg">
<path d="M40.3334 22.0001C40.3334 19.5925 39.8591 17.2085 38.9378 14.9842C38.0165 12.7599 36.666 10.7389 34.9636 9.03646C33.2612 7.33405 31.2402 5.98363 29.0159 5.06229C26.7916 4.14095 24.4076 3.66675 22 3.66675V7.33341C24.9007 7.33335 27.7362 8.1934 30.1481 9.80481C32.56 11.4162 34.44 13.7066 35.5502 16.3864C36.2874 18.1662 36.6668 20.0737 36.6667 22.0001H40.3334ZM3.66669 18.3334V9.16675C3.66669 8.68052 3.85984 8.2142 4.20366 7.87039C4.54747 7.52657 5.01379 7.33341 5.50002 7.33341H14.6667C15.1529 7.33341 15.6192 7.52657 15.963 7.87039C16.3069 8.2142 16.5 8.68052 16.5 9.16675V16.5001C16.5 16.9863 16.3069 17.4526 15.963 17.7964C15.6192 18.1403 15.1529 18.3334 14.6667 18.3334H11C11 22.2233 12.5453 25.9538 15.2958 28.7043C18.0463 31.4548 21.7768 33.0001 25.6667 33.0001V29.3334C25.6667 28.8472 25.8598 28.3809 26.2037 28.0371C26.5475 27.6932 27.0138 27.5001 27.5 27.5001H34.8334C35.3196 27.5001 35.7859 27.6932 36.1297 28.0371C36.4735 28.3809 36.6667 28.8472 36.6667 29.3334V38.5001C36.6667 38.9863 36.4735 39.4526 36.1297 39.7964C35.7859 40.1403 35.3196 40.3334 34.8334 40.3334H25.6667C13.5172 40.3334 3.66669 30.4829 3.66669 18.3334Z" fill="black"/>
<path d="M32.1622 17.7907C32.7151 19.1252 32.9998 20.5555 33 22H29.7C29.7 19.9578 28.8888 17.9993 27.4447 16.5553C26.0007 15.1112 24.0422 14.3 22 14.3V11C24.1755 11.0001 26.3022 11.6453 28.111 12.8541C29.9199 14.0628 31.3297 15.7807 32.1622 17.7907Z" fill="black"/>
</svg>
