<svg width="30" height="30" viewBox="0 0 30 30" fill="none" xmlns="http://www.w3.org/2000/svg">
<path fill-rule="evenodd" clip-rule="evenodd" d="M17.7043 19.0293C16.0195 20.3755 13.8832 21.0254 11.7342 20.8456C9.58514 20.6659 7.58651 19.6701 6.14876 18.0627C4.71101 16.4554 3.94329 14.3585 4.00327 12.2028C4.06325 10.0471 4.94638 7.9962 6.47129 6.47129C7.9962 4.94638 10.0471 4.06325 12.2028 4.00327C14.3585 3.94329 16.4554 4.71101 18.0627 6.14876C19.6701 7.58651 20.6659 9.58514 20.8456 11.7342C21.0254 13.8832 20.3755 16.0195 19.0293 17.7043L25.4743 24.1481C25.5664 24.2339 25.6403 24.3374 25.6915 24.4524C25.7428 24.5674 25.7703 24.6915 25.7726 24.8174C25.7748 24.9433 25.7516 25.0683 25.7045 25.1851C25.6573 25.3018 25.5871 25.4078 25.4981 25.4969C25.4091 25.5859 25.3031 25.6561 25.1863 25.7032C25.0696 25.7504 24.9445 25.7735 24.8187 25.7713C24.6928 25.7691 24.5686 25.7415 24.4536 25.6903C24.3386 25.6391 24.2351 25.5652 24.1493 25.4731L17.7043 19.0293ZM7.79682 17.0768C6.87937 16.1593 6.25451 14.9904 6.00121 13.7178C5.74791 12.4452 5.87754 11.1261 6.37371 9.9272C6.86988 8.72828 7.71033 7.70335 8.78884 6.98195C9.86734 6.26055 11.1355 5.87505 12.433 5.87417C13.7306 5.8733 14.9992 6.25709 16.0787 6.97704C17.1582 7.69699 18 8.72079 18.4978 9.91904C18.9956 11.1173 19.127 12.4362 18.8754 13.7091C18.6238 14.982 18.0005 16.1518 17.0843 17.0706L17.0781 17.0768L17.0718 17.0818C15.8407 18.3101 14.1724 18.9995 12.4333 18.9985C10.6942 18.9976 9.02663 18.3064 7.79682 17.0768Z" fill="#7A7A7A"/>
</svg>
