<svg width="44" height="44" viewBox="0 0 44 44" fill="none" xmlns="http://www.w3.org/2000/svg">
<path fill-rule="evenodd" clip-rule="evenodd" d="M13.7499 12.8334V11.9167C13.7499 9.72871 14.6191 7.63029 16.1663 6.08312C17.7135 4.53594 19.8119 3.66675 21.9999 3.66675C24.188 3.66675 26.2864 4.53594 27.8335 6.08312C29.3807 7.63029 30.2499 9.72871 30.2499 11.9167V12.8334H34.8333C35.8453 12.8334 36.6666 13.6566 36.6666 14.6796V36.6814C36.6666 38.6981 35.0258 40.3334 33.0109 40.3334H10.9889C10.02 40.3334 9.09073 39.9488 8.40527 39.264C7.7198 38.5792 7.33422 37.6503 7.33325 36.6814V14.6814C7.33325 13.6584 8.14909 12.8334 9.16659 12.8334H13.7499ZM16.4999 12.8334H27.4999V11.9167C27.4999 10.4581 26.9205 9.05911 25.889 8.02766C24.8576 6.99621 23.4586 6.41675 21.9999 6.41675C20.5412 6.41675 19.1423 6.99621 18.1108 8.02766C17.0794 9.05911 16.4999 10.4581 16.4999 11.9167V12.8334ZM13.7499 12.8334V20.1667H16.4999V12.8334H13.7499ZM27.4999 12.8334V20.1667H30.2499V12.8334H27.4999Z" fill="#FF0000"/>
</svg>
